#N canvas 1094 23 476 450 10;
#X obj -624 246 dac~;
#X obj -614 136 osc~ 440;
#X obj -527 134 line~;
#X obj -614 183 *~;
#X obj -527 69 r tuning_fork_on;
#X obj -414 70 r tuning_fork_off;
#X obj -614 213 hip~ 5;
#X msg -387 170 stop;
#X obj -353 236 s bang_bang;
#X obj -387 201 metro 1000;
#X obj -387 298 s counter;
#X msg -346 170 0;
#X msg -414 97 0 200;
#X msg -527 96 0.9 200;
#X obj -387 267 MyCounter;
#X connect 1 0 3 0;
#X connect 2 0 3 1;
#X connect 3 0 6 0;
#X connect 4 0 13 0;
#X connect 4 0 9 0;
#X connect 5 0 12 0;
#X connect 5 0 7 0;
#X connect 5 0 11 0;
#X connect 6 0 0 1;
#X connect 6 0 0 0;
#X connect 7 0 9 0;
#X connect 9 0 8 0;
#X connect 9 0 14 0;
#X connect 12 0 2 0;
#X connect 13 0 2 0;
#X connect 14 0 10 0;
